<svg width="30" height="30" viewBox="0 0 30 30" fill="none" xmlns="http://www.w3.org/2000/svg">
<path d="M15.027 0.112469C6.75917 0.112469 0.0547943 6.92991 0.0547943 15.3403C0.0547943 22.0685 4.34479 27.7766 10.2937 29.7902C11.042 29.9312 11.3167 29.4599 11.3167 29.0576C11.3167 28.6945 11.3028 27.4949 11.2964 26.2225C7.13108 27.1437 6.25215 24.4258 6.25215 24.4258C5.57108 22.6656 4.58975 22.1976 4.58975 22.1976C3.23132 21.2525 4.69215 21.2719 4.69215 21.2719C6.19562 21.379 6.98727 22.8411 6.98727 22.8411C8.32265 25.1692 10.4898 24.4961 11.3442 24.107C11.4786 23.1231 11.8666 22.4508 12.2948 22.0708C8.96926 21.6857 5.47339 20.3799 5.47339 14.545C5.47339 12.8824 6.05827 11.524 7.01603 10.4575C6.86058 10.0737 6.3481 8.52514 7.16108 6.42758C7.16108 6.42758 8.41835 6.01831 11.2795 7.98852C12.4738 7.65112 13.7546 7.48191 15.027 7.47611C16.2994 7.48191 17.5812 7.65112 18.7778 7.98852C21.6355 6.01831 22.891 6.42758 22.891 6.42758C23.706 8.52514 23.1932 10.0737 23.0378 10.4575C23.9978 11.524 24.5787 12.8824 24.5787 14.545C24.5787 20.3938 21.0761 21.6817 17.7421 22.0586C18.2792 22.5312 18.7577 23.4579 18.7577 24.8787C18.7577 26.916 18.7403 28.5558 18.7403 29.0576C18.7403 29.4629 19.0098 29.9377 19.7688 29.7882C25.7145 27.7723 29.999 22.0662 29.999 15.3403C29.999 6.92991 23.2956 0.112469 15.027 0.112469" fill="white"/>
<path d="M5.72555 21.9764C5.69257 22.0523 5.57555 22.0748 5.46893 22.0228C5.36034 21.9732 5.29935 21.87 5.33455 21.7941C5.36679 21.7162 5.48406 21.6948 5.59241 21.7465C5.70125 21.7964 5.76323 21.9005 5.72555 21.9764" fill="white"/>
<path d="M6.33198 22.6644C6.26058 22.7317 6.12099 22.7004 6.02628 22.594C5.92834 22.4878 5.91 22.3459 5.98239 22.2775C6.05603 22.2102 6.1914 22.2417 6.28958 22.3479C6.38752 22.4553 6.40661 22.5963 6.33198 22.6644" fill="white"/>
<path d="M6.92232 23.5414C6.83059 23.6062 6.68059 23.5454 6.58786 23.41C6.49612 23.2746 6.49612 23.1122 6.58984 23.0472C6.68282 22.9821 6.83059 23.0406 6.92455 23.175C7.01604 23.3124 7.01604 23.4751 6.92232 23.5414" fill="white"/>
<path d="M7.73107 24.3887C7.649 24.4807 7.47421 24.456 7.34628 24.3305C7.21537 24.2076 7.17892 24.0334 7.26124 23.9414C7.34429 23.8491 7.52008 23.875 7.649 23.9996C7.77892 24.1222 7.81859 24.2977 7.73107 24.3887" fill="white"/>
<path d="M8.84678 24.8807C8.81058 25 8.64223 25.0542 8.47264 25.0035C8.3033 24.9513 8.19248 24.8116 8.22669 24.6911C8.2619 24.571 8.43099 24.5145 8.60182 24.5688C8.77091 24.6207 8.88198 24.7594 8.84678 24.8807" fill="white"/>
<path d="M10.0721 24.972C10.0763 25.0976 9.93248 25.2017 9.75446 25.2037C9.57546 25.208 9.43066 25.1064 9.42868 24.9828C9.42868 24.856 9.56926 24.7528 9.74827 24.7498C9.92628 24.7463 10.0721 24.8472 10.0721 24.972" fill="white"/>
<path d="M11.2123 24.7745C11.2336 24.8971 11.1099 25.0229 10.9331 25.0562C10.7593 25.0887 10.5984 25.0131 10.5764 24.8915C10.5548 24.766 10.6807 24.6401 10.8543 24.6076C11.0313 24.5763 11.1898 24.65 11.2123 24.7745" fill="white"/>
</svg>
